<svg width="200" height="200" viewBox="0 0 200 200" fill="none" xmlns="http://www.w3.org/2000/svg">
<rect width="200" height="200" rx="24" fill="#161616"/>
<path d="M74.643 70.8779C77.603 70.8779 79.523 73.9179 78.283 76.5579L77.003 79.2779H32.243L36.163 70.8779H74.643ZM56.483 92.4779L61.683 81.2779H76.083L69.323 95.7979C67.883 98.8779 64.763 100.878 61.363 100.878H22.203L31.323 81.2779H45.723L40.483 92.4779H56.483ZM125.152 70.8779C128.072 70.8779 130.032 73.9179 128.792 76.5579L127.512 79.2779H82.7518L86.6718 70.8779H125.152ZM110.392 85.0779L112.192 81.2779H126.592L124.872 84.9979C123.392 88.0779 120.312 90.0779 116.872 90.0779H116.832L117.432 100.878H103.032L102.432 90.0779H92.1118L87.0718 100.878H72.6717L81.8318 81.2779H96.2318L94.4318 85.0779H110.392ZM134.077 75.9579C135.517 72.8779 138.637 70.8779 142.037 70.8779H178.797L172.477 79.2779H132.517L134.077 75.9579ZM166.757 83.2779C169.677 83.2779 171.597 86.3179 170.357 88.9579L167.197 95.7979C165.757 98.9179 162.637 100.878 159.197 100.878H122.437L126.357 92.4779H154.317L156.197 88.4779H134.517C131.597 88.4779 129.637 85.4379 130.877 82.7979L131.597 81.2779H145.997L145.037 83.2779H166.757Z" fill="#C30011"/>
<path d="M56.4452 128.878H52.4608L48.3788 122.794C48.3007 122.677 48.177 122.42 48.0077 122.022H47.9589V128.878H44.8046V114.874H47.9589V121.495H48.0077C48.0858 121.313 48.216 121.052 48.3983 120.714L52.2655 114.874H56.0253L51.1425 121.554L56.4452 128.878ZM73.3073 128.878H69.8698L68.8737 125.763H63.8932L62.9069 128.878H59.4889L64.5866 114.874H68.3268L73.3073 128.878ZM68.151 123.341L66.6471 118.634C66.5365 118.282 66.4583 117.862 66.4128 117.374H66.3346C66.3021 117.784 66.2207 118.191 66.0905 118.595L64.5671 123.341H68.151ZM90.0034 128.878H86.3803L84.2026 125.274C84.0399 125.001 83.8836 124.757 83.7339 124.542C83.5841 124.327 83.4311 124.145 83.2749 123.995C83.1251 123.839 82.9656 123.722 82.7964 123.644C82.6336 123.559 82.4546 123.517 82.2593 123.517H81.4096V128.878H78.2553V114.874H83.2553C86.6538 114.874 88.353 116.144 88.353 118.683C88.353 119.171 88.2781 119.623 88.1284 120.04C87.9787 120.45 87.7671 120.821 87.4936 121.153C87.2202 121.485 86.8882 121.772 86.4975 122.013C86.1134 122.254 85.6837 122.442 85.2085 122.579V122.618C85.4168 122.683 85.6186 122.791 85.8139 122.94C86.0093 123.084 86.1981 123.253 86.3803 123.448C86.5626 123.644 86.7352 123.855 86.8979 124.083C87.0672 124.304 87.2202 124.522 87.3569 124.737L90.0034 128.878ZM81.4096 117.237V121.134H82.7768C83.4539 121.134 83.9975 120.938 84.4077 120.548C84.8244 120.151 85.0327 119.659 85.0327 119.073C85.0327 117.849 84.3003 117.237 82.8354 117.237H81.4096ZM103.946 117.442H99.9514V128.878H96.7874V117.442H92.8128V114.874H103.946V117.442ZM112.185 128.878H109.03V114.874H112.185V128.878ZM131.176 128.878H127.992L122.221 120.079C121.882 119.565 121.648 119.177 121.518 118.917H121.478C121.531 119.412 121.557 120.167 121.557 121.183V128.878H118.578V114.874H121.976L127.533 123.399C127.787 123.784 128.021 124.164 128.236 124.542H128.275C128.223 124.216 128.197 123.575 128.197 122.618V114.874H131.176V128.878ZM149.073 127.94C147.706 128.728 146.007 129.122 143.975 129.122C141.723 129.122 139.945 128.5 138.643 127.257C137.348 126.007 136.7 124.288 136.7 122.101C136.7 119.9 137.41 118.106 138.829 116.72C140.248 115.333 142.136 114.64 144.493 114.64C145.977 114.64 147.286 114.845 148.419 115.255V118.214C147.338 117.589 146.016 117.276 144.454 117.276C143.145 117.276 142.077 117.703 141.251 118.556C140.43 119.402 140.02 120.535 140.02 121.954C140.02 123.393 140.388 124.506 141.124 125.294C141.866 126.082 142.865 126.476 144.122 126.476C144.877 126.476 145.476 126.368 145.919 126.153V123.419H143.116V120.899H149.073V127.94Z" fill="white"/>
</svg>
