<svg width="157" height="63" viewBox="0 0 157 63" fill="none" xmlns="http://www.w3.org/2000/svg">
<path d="M52.44 0C55.4 0 57.32 3.04 56.08 5.68L54.8 8.4H10.04L13.96 0H52.44ZM34.28 21.6L39.48 10.4H53.88L47.12 24.92C45.68 28 42.56 30 39.16 30H0L9.12 10.4H23.52L18.28 21.6H34.28ZM102.949 0C105.869 0 107.829 3.04 106.589 5.68L105.309 8.4H60.5488L64.4688 0H102.949ZM88.1888 14.2L89.9888 10.4H104.389L102.669 14.12C101.189 17.2 98.1088 19.2 94.6687 19.2H94.6288L95.2288 30H80.8288L80.2288 19.2H69.9088L64.8688 30H50.4687L59.6288 10.4H74.0288L72.2288 14.2H88.1888ZM111.874 5.08C113.314 2 116.434 0 119.834 0H156.594L150.274 8.4H110.314L111.874 5.08ZM144.554 12.4C147.474 12.4 149.394 15.44 148.154 18.08L144.994 24.92C143.554 28.04 140.434 30 136.994 30H100.234L104.154 21.6H132.114L133.994 17.6H112.314C109.394 17.6 107.434 14.56 108.674 11.92L109.394 10.4H123.794L122.834 12.4H144.554Z" fill="#C30011"/>
<path d="M34.2422 58H30.2578L26.1758 51.916C26.0977 51.7988 25.974 51.5417 25.8047 51.1445H25.7559V58H22.6016V43.9961H25.7559V50.6172H25.8047C25.8828 50.4349 26.013 50.1745 26.1953 49.8359L30.0625 43.9961H33.8223L28.9395 50.6758L34.2422 58ZM51.1043 58H47.6668L46.6707 54.8848H41.6902L40.7039 58H37.2859L42.3836 43.9961H46.1238L51.1043 58ZM45.948 52.4629L44.4441 47.7559C44.3335 47.4043 44.2553 46.9844 44.2098 46.4961H44.1316C44.0991 46.9063 44.0177 47.3132 43.8875 47.7168L42.3641 52.4629H45.948ZM67.8004 58H64.1773L61.9996 54.3965C61.8369 54.123 61.6806 53.8789 61.5309 53.6641C61.3811 53.4492 61.2281 53.2669 61.0719 53.1172C60.9221 52.9609 60.7626 52.8438 60.5934 52.7656C60.4306 52.681 60.2516 52.6387 60.0563 52.6387H59.2066V58H56.0523V43.9961H61.0523C64.4508 43.9961 66.15 45.2656 66.15 47.8047C66.15 48.293 66.0751 48.7454 65.9254 49.1621C65.7757 49.5723 65.5641 49.9434 65.2906 50.2754C65.0172 50.6074 64.6852 50.8939 64.2945 51.1348C63.9104 51.3757 63.4807 51.5645 63.0055 51.7012V51.7402C63.2138 51.8053 63.4156 51.9128 63.6109 52.0625C63.8063 52.2057 63.9951 52.375 64.1773 52.5703C64.3596 52.7656 64.5322 52.9772 64.6949 53.2051C64.8642 53.4264 65.0172 53.6445 65.1539 53.8594L67.8004 58ZM59.2066 46.3594V50.2559H60.5738C61.2509 50.2559 61.7945 50.0605 62.2047 49.6699C62.6214 49.2728 62.8297 48.7813 62.8297 48.1953C62.8297 46.9714 62.0973 46.3594 60.6324 46.3594H59.2066ZM81.7426 46.5645H77.7484V58H74.5844V46.5645H70.6098V43.9961H81.7426V46.5645ZM89.9816 58H86.8273V43.9961H89.9816V58ZM108.973 58H105.789L100.018 49.2012C99.679 48.6869 99.4447 48.2995 99.3145 48.0391H99.2754C99.3275 48.5339 99.3535 49.2891 99.3535 50.3047V58H96.375V43.9961H99.7734L105.33 52.5215C105.584 52.9056 105.818 53.2865 106.033 53.6641H106.072C106.02 53.3385 105.994 52.6973 105.994 51.7402V43.9961H108.973V58ZM126.87 57.0625C125.503 57.8503 123.804 58.2441 121.772 58.2441C119.52 58.2441 117.742 57.6224 116.44 56.3789C115.145 55.1289 114.497 53.4102 114.497 51.2227C114.497 49.0221 115.207 47.2285 116.626 45.8418C118.045 44.4551 119.933 43.7617 122.29 43.7617C123.774 43.7617 125.083 43.9668 126.216 44.377V47.3359C125.135 46.7109 123.813 46.3984 122.251 46.3984C120.942 46.3984 119.874 46.8249 119.048 47.6777C118.227 48.5241 117.817 49.6569 117.817 51.0762C117.817 52.515 118.185 53.6283 118.921 54.416C119.663 55.2038 120.662 55.5977 121.919 55.5977C122.674 55.5977 123.273 55.4902 123.716 55.2754V52.541H120.913V50.0215H126.87V57.0625Z" fill="white"/>
</svg>
