<svg width="31" height="54" viewBox="0 0 31 54" fill="none" xmlns="http://www.w3.org/2000/svg">
<path d="M29.4525 1.17127C30.2025 1.92139 30.6238 2.93868 30.6238 3.9994C30.6238 5.06011 30.2025 6.0774 29.4525 6.82752L9.65251 26.6275L29.4525 46.4275C30.1582 47.1856 30.5424 48.1879 30.5242 49.2234C30.5059 50.259 30.0867 51.2471 29.3548 51.9799C28.6228 52.7127 27.6351 53.133 26.5996 53.1523C25.5641 53.1717 24.5614 52.7887 23.8025 52.0838L1.17126 29.4588C0.421299 28.7087 -1.33514e-05 27.6914 -1.33514e-05 26.6306C-1.33514e-05 25.5699 0.421299 24.5526 1.17126 23.8025L23.7963 1.17127C24.5464 0.42131 25.5637 0 26.6244 0C27.6851 0 28.7024 0.42131 29.4525 1.17127Z" fill="#C30011"/>
</svg>
