<svg width="31" height="54" viewBox="0 0 31 54" fill="none" xmlns="http://www.w3.org/2000/svg">
<path d="M1.17127 51.9818C0.42131 51.2317 0 50.2144 0 49.1537C0 48.093 0.42131 47.0757 1.17127 46.3256L20.9713 26.5256L1.17127 6.72556C0.465551 5.96748 0.0813913 4.96521 0.0996208 3.92965C0.11785 2.89408 0.537049 1.90596 1.26901 1.17318C2.00098 0.440411 2.98863 0.0201225 4.02418 0.000747681C5.05972 -0.0186272 6.06241 0.364426 6.82127 1.06931L29.4525 23.6943C30.2025 24.4444 30.6238 25.4617 30.6238 26.5224C30.6238 27.5831 30.2025 28.6004 29.4525 29.3506L6.82752 51.9818C6.0774 52.7318 5.06011 53.1531 3.9994 53.1531C2.93868 53.1531 1.92139 52.7318 1.17127 51.9818Z" fill="#C30011"/>
</svg>
